# xmcd CD database file
#
# Track frame offsets:
#	150
#	17875
#	38703
#	60277
#	83195
#	98652
#	117326
#	137774
#	166700
#	180950
#	196725
#	211058
#	234062
#	252975
#
# Disc length: 3783 seconds
#
# Revision: 0
# Processed by: cddbd v1.5.2PL0 Copyright (c) Steve Scherf et al.
# Submitted via: CDex 1.70beta2
#
DISCID=a00ec50e
DTITLE=Taneytown - Angels and Live
DYEAR=2010
DGENRE=Country
TTITLE0=Dog Eat Dog
TTITLE1=Set Me Free
TTITLE2=Picking Up The Pieces
TTITLE3=Harvest Time
TTITLE4=I Don't Need You Anymore
TTITLE5=Stray Dogs
TTITLE6=Atlantic City
TTITLE7=What Do You Want Me To Say
TTITLE8=Folsom Prison Blues
TTITLE9=Albuquerque, New Mexico
TTITLE10=Drunker Than Me
TTITLE11=Willin'
TTITLE12=Blame It On Jack
TTITLE13=Driving My Life Away
EXTD=YEAR: 2010
EXTT0=
EXTT1=
EXTT2=
EXTT3=
EXTT4=
EXTT5=
EXTT6=
EXTT7=
EXTT8=
EXTT9=
EXTT10=
EXTT11=
EXTT12=
EXTT13=
PLAYORDER=
